<?xml version="1.0" encoding="UTF-8"?>
<svg id="logo" xmlns="http://www.w3.org/2000/svg" viewBox="0 0 98.62 80.1">
  <style>
    path {
    fill: black;
    }
    @media (prefers-color-scheme: dark) {
    path {
    fill: white;
    }
    }
  </style>
  <g id="logo" data-name="logo">
    <g>
      <path d="M59.95,68.41c.46-.46.99-.86,1.56-1.19l-5.77-5.77h0c-.32.57-.72,1.09-1.19,1.55-.46.46-.99.87-1.56,1.2l5.77,5.77h0c.32-.57.73-1.09,1.19-1.56Z"/>
      <path d="M85.02,30.86c-.34-1.27-.34-2.61,0-3.88h-8.16c.34,1.27.34,2.61,0,3.88h8.16Z"/>
      <path d="M55.03,53.05l12.15-17.16c-1.23-.45-2.33-1.22-3.17-2.23l-12.14,17.15c1.01.37,1.93.96,2.69,1.72.17.17.33.34.48.52h0Z"/>
      <path d="M44.06,52.52c.76-.77,1.68-1.35,2.69-1.72l-12.14-17.14c-.84,1.01-1.94,1.78-3.18,2.23l12.15,17.16c.15-.18.31-.36.48-.52h0Z"/>
      <path d="M67.76,13.6v8.16c1.27-.34,2.61-.34,3.88,0v-8.16c-1.27.35-2.61.35-3.88,0Z"/>
      <path d="M42.87,61.46l-5.77,5.77h0c1.14.65,2.09,1.6,2.75,2.74l5.77-5.77h0c-.57-.32-1.09-.73-1.56-1.19-.46-.46-.86-.98-1.19-1.55Z"/>
      <path d="M26.97,21.76c1.27-.34,2.61-.34,3.88,0v-8.16c-1.27.35-2.61.35-3.88,0v8.16Z"/>
      <path d="M62.56,30.91c-.35-1.27-.36-2.61-.03-3.88h-26.44c.16.62.25,1.25.25,1.89,0,.67-.09,1.34-.27,1.99h26.5Z"/>
      <path d="M21.76,30.86c-.34-1.27-.34-2.61,0-3.88h-8.16c.34,1.27.34,2.61,0,3.88h8.16Z"/>
      <path d="M65.2,67.21c-3.07,0-5.72,2.17-6.32,5.19-.6,3.02,1.02,6.04,3.86,7.21,2.84,1.18,6.12.18,7.83-2.38,1.71-2.55,1.37-5.96-.8-8.14-1.2-1.21-2.84-1.89-4.55-1.89h0Z"/>
      <path d="M53.87,53.21c-1.84-1.84-4.62-2.39-7.02-1.39-2.41,1-3.98,3.35-3.98,5.95s1.57,4.96,3.98,5.95c2.41,1,5.18.45,7.02-1.39,1.21-1.21,1.89-2.85,1.89-4.56s-.68-3.35-1.89-4.56Z"/>
      <path d="M0,28.92c0-3.56,2.88-6.45,6.45-6.45s6.45,2.89,6.45,6.45-2.89,6.45-6.45,6.45-6.45-2.89-6.45-6.45"/>
      <path d="M22.47,6.45c0-3.56,2.89-6.45,6.45-6.45s6.45,2.89,6.45,6.45-2.88,6.45-6.45,6.45-6.45-2.88-6.45-6.45"/>
      <path d="M22.47,28.92c0-3.56,2.89-6.45,6.45-6.45s6.45,2.89,6.45,6.45-2.88,6.45-6.45,6.45-6.45-2.89-6.45-6.45"/>
      <path d="M63.26,6.45c0-3.56,2.88-6.45,6.45-6.45s6.45,2.89,6.45,6.45-2.89,6.45-6.45,6.45-6.45-2.88-6.45-6.45"/>
      <path d="M85.73,28.92c0-3.56,2.89-6.45,6.45-6.45s6.45,2.89,6.45,6.45-2.88,6.45-6.45,6.45-6.45-2.89-6.45-6.45"/>
      <path d="M63.26,28.92c0-3.56,2.88-6.45,6.45-6.45s6.45,2.89,6.45,6.45-2.89,6.45-6.45,6.45-6.45-2.89-6.45-6.45"/>
      <path d="M33.42,67.21c-3.07,0-5.72,2.17-6.32,5.19-.6,3.02,1.01,6.04,3.86,7.21,2.84,1.18,6.12.18,7.82-2.37,1.71-2.56,1.38-5.96-.8-8.14-1.21-1.21-2.85-1.89-4.56-1.89h0Z"/>
    </g>
  </g>
</svg>